<svg width="34" height="36" viewBox="0 0 34 36" fill="none" xmlns="http://www.w3.org/2000/svg">
<path d="M27.6183 11.8858C28.3633 11.8858 29.1011 11.7391 29.7894 11.454C30.4777 11.1689 31.1031 10.751 31.63 10.2241C32.1568 9.69732 32.5747 9.0719 32.8598 8.38358C33.1449 7.69526 33.2916 6.95752 33.2916 6.21249C33.2916 5.46745 33.1449 4.72972 32.8598 4.0414C32.5747 3.35308 32.1568 2.72765 31.63 2.20083C31.1031 1.67402 30.4777 1.25612 29.7894 0.971011C29.1011 0.685899 28.3633 0.539154 27.6183 0.539154C26.1137 0.539154 24.6706 1.13688 23.6067 2.20083C22.5427 3.26479 21.945 4.70783 21.945 6.21249C21.945 7.71715 22.5427 9.16018 23.6067 10.2241C24.6706 11.2881 26.1137 11.8858 27.6183 11.8858ZM6.38165 11.8858C7.12668 11.8858 7.86442 11.7391 8.55274 11.454C9.24106 11.1689 9.86648 10.751 10.3933 10.2241C10.9201 9.69732 11.338 9.0719 11.6231 8.38358C11.9082 7.69526 12.055 6.95752 12.055 6.21249C12.055 5.46745 11.9082 4.72972 11.6231 4.0414C11.338 3.35308 10.9201 2.72765 10.3933 2.20083C9.86648 1.67402 9.24106 1.25612 8.55274 0.971011C7.86442 0.685899 7.12668 0.539154 6.38165 0.539154C4.87698 0.539154 3.43395 1.13688 2.36999 2.20083C1.30604 3.26479 0.708313 4.70783 0.708313 6.21249C0.708313 7.71715 1.30604 9.16018 2.36999 10.2241C3.43395 11.2881 4.87698 11.8858 6.38165 11.8858ZM27.6183 35.4627C29.123 35.4627 30.566 34.865 31.63 33.8011C32.6939 32.7371 33.2916 31.2941 33.2916 29.7894C33.2916 28.2847 32.6939 26.8417 31.63 25.7778C30.566 24.7138 29.123 24.1161 27.6183 24.1161C26.1137 24.1161 24.6706 24.7138 23.6067 25.7778C22.5427 26.8417 21.945 28.2847 21.945 29.7894C21.945 31.2941 22.5427 32.7371 23.6067 33.8011C24.6706 34.865 26.1137 35.4627 27.6183 35.4627ZM6.38165 35.4627C7.88631 35.4627 9.32934 34.865 10.3933 33.8011C11.4573 32.7371 12.055 31.2941 12.055 29.7894C12.055 28.2847 11.4573 26.8417 10.3933 25.7778C9.32934 24.7138 7.88631 24.1161 6.38165 24.1161C4.87698 24.1161 3.43395 24.7138 2.36999 25.7778C1.30604 26.8417 0.708313 28.2847 0.708313 29.7894C0.708313 31.2941 1.30604 32.7371 2.36999 33.8011C3.43395 34.865 4.87698 35.4627 6.38165 35.4627Z" fill="white"/>
</svg>
